<mxfile host="app.diagrams.net" modified="2022-08-29T03:49:43.361Z" agent="5.0 (Macintosh; Intel Mac OS X 10_15_7) AppleWebKit/537.36 (KHTML, like Gecko) Chrome/104.0.0.0 Safari/537.36" etag="zTOAyvAFiWm7litrEU39" version="20.2.7" type="github">
  <diagram id="uEtx-rClUIluF5eoHh9o" name="Page-1">
    <mxGraphModel dx="2057" dy="1066" grid="1" gridSize="10" guides="1" tooltips="1" connect="1" arrows="1" fold="1" page="1" pageScale="1" pageWidth="827" pageHeight="1169" math="0" shadow="0">
      <root>
        <mxCell id="0" />
        <mxCell id="1" parent="0" />
        <mxCell id="8oAO5jy6MXNJYuo4tlUB-1" value="votron schema" style="swimlane;startSize=20;horizontal=0;childLayout=treeLayout;horizontalTree=1;resizable=0;containerType=tree;rounded=1;sketch=1;fontFamily=Comic Sans MS;fontColor=#EA6B66;" parent="1" vertex="1">
          <mxGeometry x="731" y="490" width="310" height="560" as="geometry" />
        </mxCell>
        <mxCell id="8oAO5jy6MXNJYuo4tlUB-2" value="schema/协议" style="whiteSpace=wrap;html=1;rounded=1;sketch=1;fontFamily=Comic Sans MS;fontColor=#EA6B66;" parent="8oAO5jy6MXNJYuo4tlUB-1" vertex="1">
          <mxGeometry x="40" y="260" width="100" height="40" as="geometry" />
        </mxCell>
        <mxCell id="8oAO5jy6MXNJYuo4tlUB-3" value="" style="edgeStyle=orthogonalEdgeStyle;rounded=0;orthogonalLoop=1;jettySize=auto;html=1;" parent="8oAO5jy6MXNJYuo4tlUB-1" source="8oAO5jy6MXNJYuo4tlUB-2" target="8oAO5jy6MXNJYuo4tlUB-4" edge="1">
          <mxGeometry relative="1" as="geometry">
            <Array as="points">
              <mxPoint x="120" y="40" />
            </Array>
          </mxGeometry>
        </mxCell>
        <mxCell id="8oAO5jy6MXNJYuo4tlUB-4" value="version" style="whiteSpace=wrap;html=1;rounded=1;sketch=1;fontFamily=Comic Sans MS;fontColor=#EA6B66;" parent="8oAO5jy6MXNJYuo4tlUB-1" vertex="1">
          <mxGeometry x="190" y="20" width="100" height="40" as="geometry" />
        </mxCell>
        <mxCell id="8oAO5jy6MXNJYuo4tlUB-5" value="" style="edgeStyle=orthogonalEdgeStyle;rounded=0;orthogonalLoop=1;jettySize=auto;html=1;" parent="8oAO5jy6MXNJYuo4tlUB-1" source="8oAO5jy6MXNJYuo4tlUB-2" target="8oAO5jy6MXNJYuo4tlUB-6" edge="1">
          <mxGeometry relative="1" as="geometry">
            <Array as="points">
              <mxPoint x="120" y="120" />
            </Array>
          </mxGeometry>
        </mxCell>
        <mxCell id="8oAO5jy6MXNJYuo4tlUB-6" value="utils" style="whiteSpace=wrap;html=1;rounded=1;sketch=1;fontFamily=Comic Sans MS;fontColor=#EA6B66;" parent="8oAO5jy6MXNJYuo4tlUB-1" vertex="1">
          <mxGeometry x="190" y="100" width="100" height="40" as="geometry" />
        </mxCell>
        <mxCell id="8oAO5jy6MXNJYuo4tlUB-7" value="" style="edgeStyle=orthogonalEdgeStyle;rounded=0;orthogonalLoop=1;jettySize=auto;html=1;" parent="8oAO5jy6MXNJYuo4tlUB-1" source="8oAO5jy6MXNJYuo4tlUB-2" target="8oAO5jy6MXNJYuo4tlUB-8" edge="1">
          <mxGeometry relative="1" as="geometry">
            <Array as="points">
              <mxPoint x="120" y="200" />
            </Array>
          </mxGeometry>
        </mxCell>
        <mxCell id="8oAO5jy6MXNJYuo4tlUB-8" value="contants" style="whiteSpace=wrap;html=1;rounded=1;sketch=1;fontFamily=Comic Sans MS;fontColor=#EA6B66;" parent="8oAO5jy6MXNJYuo4tlUB-1" vertex="1">
          <mxGeometry x="190" y="180" width="100" height="40" as="geometry" />
        </mxCell>
        <mxCell id="8oAO5jy6MXNJYuo4tlUB-9" value="" style="edgeStyle=orthogonalEdgeStyle;rounded=0;orthogonalLoop=1;jettySize=auto;html=1;" parent="8oAO5jy6MXNJYuo4tlUB-1" source="8oAO5jy6MXNJYuo4tlUB-2" target="8oAO5jy6MXNJYuo4tlUB-10" edge="1">
          <mxGeometry relative="1" as="geometry" />
        </mxCell>
        <mxCell id="8oAO5jy6MXNJYuo4tlUB-10" value="widgetMaps" style="whiteSpace=wrap;html=1;rounded=1;sketch=1;fontFamily=Comic Sans MS;fontColor=#EA6B66;" parent="8oAO5jy6MXNJYuo4tlUB-1" vertex="1">
          <mxGeometry x="190" y="260" width="100" height="40" as="geometry" />
        </mxCell>
        <mxCell id="8oAO5jy6MXNJYuo4tlUB-11" value="" style="edgeStyle=orthogonalEdgeStyle;rounded=0;orthogonalLoop=1;jettySize=auto;html=1;" parent="8oAO5jy6MXNJYuo4tlUB-1" source="8oAO5jy6MXNJYuo4tlUB-2" target="8oAO5jy6MXNJYuo4tlUB-12" edge="1">
          <mxGeometry relative="1" as="geometry">
            <Array as="points">
              <mxPoint x="120" y="360" />
            </Array>
          </mxGeometry>
        </mxCell>
        <mxCell id="8oAO5jy6MXNJYuo4tlUB-12" value="widgetTrees" style="whiteSpace=wrap;html=1;rounded=1;sketch=1;fontFamily=Comic Sans MS;fontColor=#EA6B66;" parent="8oAO5jy6MXNJYuo4tlUB-1" vertex="1">
          <mxGeometry x="190" y="340" width="100" height="40" as="geometry" />
        </mxCell>
        <mxCell id="8oAO5jy6MXNJYuo4tlUB-13" value="" style="edgeStyle=orthogonalEdgeStyle;rounded=0;orthogonalLoop=1;jettySize=auto;html=1;" parent="8oAO5jy6MXNJYuo4tlUB-1" source="8oAO5jy6MXNJYuo4tlUB-2" target="8oAO5jy6MXNJYuo4tlUB-14" edge="1">
          <mxGeometry relative="1" as="geometry">
            <Array as="points">
              <mxPoint x="120" y="440" />
            </Array>
          </mxGeometry>
        </mxCell>
        <mxCell id="8oAO5jy6MXNJYuo4tlUB-14" value="meta" style="whiteSpace=wrap;html=1;rounded=1;sketch=1;fontFamily=Comic Sans MS;fontColor=#EA6B66;" parent="8oAO5jy6MXNJYuo4tlUB-1" vertex="1">
          <mxGeometry x="190" y="420" width="100" height="40" as="geometry" />
        </mxCell>
        <mxCell id="8oAO5jy6MXNJYuo4tlUB-15" value="" style="edgeStyle=orthogonalEdgeStyle;rounded=0;orthogonalLoop=1;jettySize=auto;html=1;" parent="8oAO5jy6MXNJYuo4tlUB-1" source="8oAO5jy6MXNJYuo4tlUB-2" target="8oAO5jy6MXNJYuo4tlUB-16" edge="1">
          <mxGeometry relative="1" as="geometry">
            <Array as="points">
              <mxPoint x="120" y="520" />
            </Array>
          </mxGeometry>
        </mxCell>
        <mxCell id="8oAO5jy6MXNJYuo4tlUB-16" value="i18n" style="whiteSpace=wrap;html=1;rounded=1;sketch=1;fontFamily=Comic Sans MS;fontColor=#EA6B66;" parent="8oAO5jy6MXNJYuo4tlUB-1" vertex="1">
          <mxGeometry x="190" y="500" width="100" height="40" as="geometry" />
        </mxCell>
        <mxCell id="8oAO5jy6MXNJYuo4tlUB-17" value="Voltron editor" style="swimlane;rounded=1;sketch=1;fontFamily=Comic Sans MS;fontColor=#EA6B66;" parent="1" vertex="1">
          <mxGeometry x="1561" y="480" width="590" height="630" as="geometry" />
        </mxCell>
        <mxCell id="8oAO5jy6MXNJYuo4tlUB-18" style="edgeStyle=orthogonalEdgeStyle;rounded=0;orthogonalLoop=1;jettySize=auto;html=1;entryX=0.5;entryY=0;entryDx=0;entryDy=0;entryPerimeter=0;fontFamily=Comic Sans MS;" parent="8oAO5jy6MXNJYuo4tlUB-17" source="8oAO5jy6MXNJYuo4tlUB-19" target="8oAO5jy6MXNJYuo4tlUB-38" edge="1">
          <mxGeometry relative="1" as="geometry" />
        </mxCell>
        <mxCell id="8oAO5jy6MXNJYuo4tlUB-19" value="" style="verticalLabelPosition=bottom;verticalAlign=top;html=1;shape=mxgraph.basic.patternFillRect;fillStyle=diag;step=5;fillStrokeWidth=0.2;fillStrokeColor=#dddddd;rounded=1;sketch=1;fontFamily=Comic Sans MS;" parent="8oAO5jy6MXNJYuo4tlUB-17" vertex="1">
          <mxGeometry x="30" y="60" width="530" height="80" as="geometry" />
        </mxCell>
        <mxCell id="8oAO5jy6MXNJYuo4tlUB-20" value="event/emiter" style="rounded=1;whiteSpace=wrap;html=1;strokeWidth=2;fillWeight=4;hachureGap=8;hachureAngle=45;fillColor=#E6E6E6;sketch=1;fontFamily=Comic Sans MS;fontColor=#EA6B66;" parent="8oAO5jy6MXNJYuo4tlUB-17" vertex="1">
          <mxGeometry x="150" y="80" width="120" height="40" as="geometry" />
        </mxCell>
        <mxCell id="8oAO5jy6MXNJYuo4tlUB-21" value="context" style="rounded=1;whiteSpace=wrap;html=1;strokeWidth=2;fillWeight=4;hachureGap=8;hachureAngle=45;fillColor=#E6E6E6;sketch=1;fontFamily=Comic Sans MS;fontColor=#EA6B66;" parent="8oAO5jy6MXNJYuo4tlUB-17" vertex="1">
          <mxGeometry x="320" y="80" width="120" height="40" as="geometry" />
        </mxCell>
        <mxCell id="8oAO5jy6MXNJYuo4tlUB-22" style="edgeStyle=orthogonalEdgeStyle;rounded=0;orthogonalLoop=1;jettySize=auto;html=1;entryX=0.51;entryY=-0.019;entryDx=0;entryDy=0;entryPerimeter=0;fontFamily=Comic Sans MS;" parent="8oAO5jy6MXNJYuo4tlUB-17" source="8oAO5jy6MXNJYuo4tlUB-23" target="8oAO5jy6MXNJYuo4tlUB-32" edge="1">
          <mxGeometry relative="1" as="geometry" />
        </mxCell>
        <mxCell id="8oAO5jy6MXNJYuo4tlUB-23" value="" style="verticalLabelPosition=bottom;verticalAlign=top;html=1;shape=mxgraph.basic.patternFillRect;fillStyle=diag;step=5;fillStrokeWidth=0.2;fillStrokeColor=#dddddd;rounded=1;sketch=1;fontFamily=Comic Sans MS;" parent="8oAO5jy6MXNJYuo4tlUB-17" vertex="1">
          <mxGeometry x="30" y="290" width="530" height="140" as="geometry" />
        </mxCell>
        <mxCell id="8oAO5jy6MXNJYuo4tlUB-24" value="&lt;font style=&quot;font-size: 24px;&quot;&gt;ioc/di&lt;/font&gt;" style="text;html=1;strokeColor=none;fillColor=none;align=center;verticalAlign=middle;whiteSpace=wrap;rounded=0;sketch=1;fontFamily=Comic Sans MS;fontColor=#EA6B66;fontSize=14;" parent="8oAO5jy6MXNJYuo4tlUB-17" vertex="1">
          <mxGeometry x="260" y="300" width="60" height="30" as="geometry" />
        </mxCell>
        <mxCell id="8oAO5jy6MXNJYuo4tlUB-25" value="top" style="rounded=1;whiteSpace=wrap;html=1;sketch=1;fontFamily=Comic Sans MS;fontColor=#EA6B66;" parent="8oAO5jy6MXNJYuo4tlUB-17" vertex="1">
          <mxGeometry x="40" y="342" width="70" height="20" as="geometry" />
        </mxCell>
        <mxCell id="8oAO5jy6MXNJYuo4tlUB-26" value="left" style="rounded=1;whiteSpace=wrap;html=1;sketch=1;fontFamily=Comic Sans MS;fontColor=#EA6B66;" parent="8oAO5jy6MXNJYuo4tlUB-17" vertex="1">
          <mxGeometry x="130" y="342" width="70" height="20" as="geometry" />
        </mxCell>
        <mxCell id="8oAO5jy6MXNJYuo4tlUB-27" value="right" style="rounded=1;whiteSpace=wrap;html=1;sketch=1;fontFamily=Comic Sans MS;fontColor=#EA6B66;" parent="8oAO5jy6MXNJYuo4tlUB-17" vertex="1">
          <mxGeometry x="220" y="342" width="70" height="20" as="geometry" />
        </mxCell>
        <mxCell id="8oAO5jy6MXNJYuo4tlUB-28" value="main" style="rounded=1;whiteSpace=wrap;html=1;sketch=1;fontFamily=Comic Sans MS;fontColor=#EA6B66;" parent="8oAO5jy6MXNJYuo4tlUB-17" vertex="1">
          <mxGeometry x="307" y="342" width="70" height="20" as="geometry" />
        </mxCell>
        <mxCell id="8oAO5jy6MXNJYuo4tlUB-29" value="bottom" style="rounded=1;whiteSpace=wrap;html=1;sketch=1;fontFamily=Comic Sans MS;fontColor=#EA6B66;" parent="8oAO5jy6MXNJYuo4tlUB-17" vertex="1">
          <mxGeometry x="400" y="342" width="70" height="20" as="geometry" />
        </mxCell>
        <mxCell id="8oAO5jy6MXNJYuo4tlUB-30" value="toolbar" style="rounded=1;whiteSpace=wrap;html=1;sketch=1;fontFamily=Comic Sans MS;fontColor=#EA6B66;" parent="8oAO5jy6MXNJYuo4tlUB-17" vertex="1">
          <mxGeometry x="480" y="342" width="70" height="20" as="geometry" />
        </mxCell>
        <mxCell id="8oAO5jy6MXNJYuo4tlUB-31" value="..." style="rounded=1;whiteSpace=wrap;html=1;sketch=1;fontFamily=Comic Sans MS;fontColor=#EA6B66;" parent="8oAO5jy6MXNJYuo4tlUB-17" vertex="1">
          <mxGeometry x="250" y="385" width="70" height="20" as="geometry" />
        </mxCell>
        <mxCell id="8oAO5jy6MXNJYuo4tlUB-32" value="" style="verticalLabelPosition=bottom;verticalAlign=top;html=1;shape=mxgraph.basic.patternFillRect;fillStyle=diag;step=5;fillStrokeWidth=0.2;fillStrokeColor=#dddddd;rounded=1;sketch=1;fontFamily=Comic Sans MS;" parent="8oAO5jy6MXNJYuo4tlUB-17" vertex="1">
          <mxGeometry x="25" y="470" width="530" height="120" as="geometry" />
        </mxCell>
        <mxCell id="8oAO5jy6MXNJYuo4tlUB-33" value="preview" style="text;html=1;strokeColor=none;fillColor=none;align=center;verticalAlign=middle;whiteSpace=wrap;rounded=0;sketch=1;fontFamily=Comic Sans MS;fontColor=#EA6B66;" parent="8oAO5jy6MXNJYuo4tlUB-17" vertex="1">
          <mxGeometry x="265" y="480" width="60" height="30" as="geometry" />
        </mxCell>
        <mxCell id="8oAO5jy6MXNJYuo4tlUB-34" value="online" style="rounded=1;whiteSpace=wrap;html=1;sketch=1;fontFamily=Comic Sans MS;fontColor=#EA6B66;" parent="8oAO5jy6MXNJYuo4tlUB-17" vertex="1">
          <mxGeometry x="155" y="530" width="70" height="20" as="geometry" />
        </mxCell>
        <mxCell id="8oAO5jy6MXNJYuo4tlUB-35" value="offline" style="rounded=1;whiteSpace=wrap;html=1;sketch=1;fontFamily=Comic Sans MS;fontColor=#EA6B66;" parent="8oAO5jy6MXNJYuo4tlUB-17" vertex="1">
          <mxGeometry x="395" y="530" width="70" height="20" as="geometry" />
        </mxCell>
        <mxCell id="8oAO5jy6MXNJYuo4tlUB-36" value="generator code" style="rounded=1;whiteSpace=wrap;html=1;sketch=1;fontFamily=Comic Sans MS;fontColor=#EA6B66;" parent="8oAO5jy6MXNJYuo4tlUB-17" vertex="1">
          <mxGeometry x="255" y="530" width="103" height="20" as="geometry" />
        </mxCell>
        <mxCell id="8oAO5jy6MXNJYuo4tlUB-37" style="edgeStyle=orthogonalEdgeStyle;rounded=0;orthogonalLoop=1;jettySize=auto;html=1;entryX=0.5;entryY=0;entryDx=0;entryDy=0;entryPerimeter=0;fontFamily=Comic Sans MS;fontSize=24;fontColor=#EA6B66;" parent="8oAO5jy6MXNJYuo4tlUB-17" source="8oAO5jy6MXNJYuo4tlUB-38" target="8oAO5jy6MXNJYuo4tlUB-23" edge="1">
          <mxGeometry relative="1" as="geometry" />
        </mxCell>
        <mxCell id="8oAO5jy6MXNJYuo4tlUB-38" value="" style="verticalLabelPosition=bottom;verticalAlign=top;html=1;shape=mxgraph.basic.patternFillRect;fillStyle=diag;step=5;fillStrokeWidth=0.2;fillStrokeColor=#dddddd;rounded=1;sketch=1;fontFamily=Comic Sans MS;" parent="8oAO5jy6MXNJYuo4tlUB-17" vertex="1">
          <mxGeometry x="30" y="180" width="530" height="80" as="geometry" />
        </mxCell>
        <mxCell id="8oAO5jy6MXNJYuo4tlUB-39" value="plugins" style="ellipse;whiteSpace=wrap;html=1;strokeWidth=2;fillWeight=2;hachureGap=8;fillColor=#E6E6E6;fillStyle=dots;sketch=1;rounded=1;fontFamily=Comic Sans MS;fontColor=#EA6B66;" parent="8oAO5jy6MXNJYuo4tlUB-17" vertex="1">
          <mxGeometry x="70" y="200" width="80" height="40" as="geometry" />
        </mxCell>
        <mxCell id="8oAO5jy6MXNJYuo4tlUB-40" value="setters" style="ellipse;whiteSpace=wrap;html=1;strokeWidth=2;fillWeight=2;hachureGap=8;fillColor=#E6E6E6;fillStyle=dots;sketch=1;rounded=1;fontFamily=Comic Sans MS;fontColor=#EA6B66;" parent="8oAO5jy6MXNJYuo4tlUB-17" vertex="1">
          <mxGeometry x="187" y="200" width="80" height="40" as="geometry" />
        </mxCell>
        <mxCell id="8oAO5jy6MXNJYuo4tlUB-41" value="utils" style="ellipse;whiteSpace=wrap;html=1;strokeWidth=2;fillWeight=2;hachureGap=8;fillColor=#E6E6E6;fillStyle=dots;sketch=1;rounded=1;fontFamily=Comic Sans MS;fontColor=#EA6B66;" parent="8oAO5jy6MXNJYuo4tlUB-17" vertex="1">
          <mxGeometry x="315" y="200" width="80" height="40" as="geometry" />
        </mxCell>
        <mxCell id="8oAO5jy6MXNJYuo4tlUB-42" value="sandbox" style="ellipse;whiteSpace=wrap;html=1;strokeWidth=2;fillWeight=2;hachureGap=8;fillColor=#E6E6E6;fillStyle=dots;sketch=1;rounded=1;fontFamily=Comic Sans MS;fontColor=#EA6B66;" parent="8oAO5jy6MXNJYuo4tlUB-17" vertex="1">
          <mxGeometry x="450" y="200" width="80" height="40" as="geometry" />
        </mxCell>
        <mxCell id="8oAO5jy6MXNJYuo4tlUB-43" value="Voltron schema generator code" style="swimlane;startSize=20;horizontal=0;childLayout=treeLayout;horizontalTree=1;resizable=0;containerType=tree;rounded=1;sketch=1;fontFamily=Comic Sans MS;fillColor=#E6E6E6;fontColor=#EA6B66;" parent="1" vertex="1">
          <mxGeometry x="331" y="610" width="310" height="320" as="geometry" />
        </mxCell>
        <mxCell id="8oAO5jy6MXNJYuo4tlUB-44" value="code" style="whiteSpace=wrap;html=1;rounded=1;sketch=1;fontFamily=Comic Sans MS;fillColor=#E6E6E6;fontColor=#EA6B66;" parent="8oAO5jy6MXNJYuo4tlUB-43" vertex="1">
          <mxGeometry x="40" y="140" width="100" height="40" as="geometry" />
        </mxCell>
        <mxCell id="8oAO5jy6MXNJYuo4tlUB-45" value="node" style="whiteSpace=wrap;html=1;rounded=1;sketch=1;fontFamily=Comic Sans MS;fillColor=#E6E6E6;fontColor=#EA6B66;" parent="8oAO5jy6MXNJYuo4tlUB-43" vertex="1">
          <mxGeometry x="190" y="20" width="100" height="40" as="geometry" />
        </mxCell>
        <mxCell id="8oAO5jy6MXNJYuo4tlUB-46" value="" style="edgeStyle=elbowEdgeStyle;elbow=horizontal;html=1;rounded=0;fontFamily=Comic Sans MS;" parent="8oAO5jy6MXNJYuo4tlUB-43" source="8oAO5jy6MXNJYuo4tlUB-44" target="8oAO5jy6MXNJYuo4tlUB-45" edge="1">
          <mxGeometry relative="1" as="geometry" />
        </mxCell>
        <mxCell id="8oAO5jy6MXNJYuo4tlUB-47" value="java" style="whiteSpace=wrap;html=1;rounded=1;sketch=1;fontFamily=Comic Sans MS;fillColor=#E6E6E6;fontColor=#EA6B66;" parent="8oAO5jy6MXNJYuo4tlUB-43" vertex="1">
          <mxGeometry x="190" y="100" width="100" height="40" as="geometry" />
        </mxCell>
        <mxCell id="8oAO5jy6MXNJYuo4tlUB-48" value="" style="edgeStyle=elbowEdgeStyle;elbow=horizontal;html=1;rounded=0;fontFamily=Comic Sans MS;" parent="8oAO5jy6MXNJYuo4tlUB-43" source="8oAO5jy6MXNJYuo4tlUB-44" target="8oAO5jy6MXNJYuo4tlUB-47" edge="1">
          <mxGeometry relative="1" as="geometry" />
        </mxCell>
        <mxCell id="8oAO5jy6MXNJYuo4tlUB-49" value="" style="edgeStyle=orthogonalEdgeStyle;rounded=0;orthogonalLoop=1;jettySize=auto;html=1;" parent="8oAO5jy6MXNJYuo4tlUB-43" source="8oAO5jy6MXNJYuo4tlUB-44" target="8oAO5jy6MXNJYuo4tlUB-50" edge="1">
          <mxGeometry relative="1" as="geometry" />
        </mxCell>
        <mxCell id="8oAO5jy6MXNJYuo4tlUB-50" value="golang" style="whiteSpace=wrap;html=1;rounded=1;sketch=1;fontFamily=Comic Sans MS;fillColor=#E6E6E6;fontColor=#EA6B66;" parent="8oAO5jy6MXNJYuo4tlUB-43" vertex="1">
          <mxGeometry x="190" y="180" width="100" height="40" as="geometry" />
        </mxCell>
        <mxCell id="8oAO5jy6MXNJYuo4tlUB-51" value="" style="edgeStyle=orthogonalEdgeStyle;rounded=0;orthogonalLoop=1;jettySize=auto;html=1;" parent="8oAO5jy6MXNJYuo4tlUB-43" source="8oAO5jy6MXNJYuo4tlUB-44" target="8oAO5jy6MXNJYuo4tlUB-52" edge="1">
          <mxGeometry relative="1" as="geometry" />
        </mxCell>
        <mxCell id="8oAO5jy6MXNJYuo4tlUB-52" value="..." style="whiteSpace=wrap;html=1;rounded=1;sketch=1;fontFamily=Comic Sans MS;fillColor=#E6E6E6;fontColor=#EA6B66;" parent="8oAO5jy6MXNJYuo4tlUB-43" vertex="1">
          <mxGeometry x="190" y="260" width="100" height="40" as="geometry" />
        </mxCell>
        <mxCell id="8oAO5jy6MXNJYuo4tlUB-53" value="Voltron schema" style="swimlane;startSize=20;horizontal=0;childLayout=treeLayout;horizontalTree=1;resizable=0;containerType=tree;rounded=1;sketch=1;fontFamily=Comic Sans MS;fillColor=#E6E6E6;fontColor=#EA6B66;" parent="1" vertex="1">
          <mxGeometry x="1151" y="610" width="310" height="320" as="geometry" />
        </mxCell>
        <mxCell id="8oAO5jy6MXNJYuo4tlUB-54" value="Project Schema" style="whiteSpace=wrap;html=1;rounded=1;sketch=1;fontFamily=Comic Sans MS;fillColor=#E6E6E6;fontColor=#EA6B66;" parent="8oAO5jy6MXNJYuo4tlUB-53" vertex="1">
          <mxGeometry x="40" y="140" width="100" height="40" as="geometry" />
        </mxCell>
        <mxCell id="8oAO5jy6MXNJYuo4tlUB-55" value="schema 1" style="whiteSpace=wrap;html=1;rounded=1;sketch=1;fontFamily=Comic Sans MS;fillColor=#E6E6E6;fontColor=#EA6B66;" parent="8oAO5jy6MXNJYuo4tlUB-53" vertex="1">
          <mxGeometry x="190" y="20" width="100" height="40" as="geometry" />
        </mxCell>
        <mxCell id="8oAO5jy6MXNJYuo4tlUB-56" value="" style="edgeStyle=elbowEdgeStyle;elbow=horizontal;html=1;rounded=0;fontFamily=Comic Sans MS;" parent="8oAO5jy6MXNJYuo4tlUB-53" source="8oAO5jy6MXNJYuo4tlUB-54" target="8oAO5jy6MXNJYuo4tlUB-55" edge="1">
          <mxGeometry relative="1" as="geometry" />
        </mxCell>
        <mxCell id="8oAO5jy6MXNJYuo4tlUB-57" value="schema 2" style="whiteSpace=wrap;html=1;rounded=1;sketch=1;fontFamily=Comic Sans MS;fillColor=#E6E6E6;fontColor=#EA6B66;" parent="8oAO5jy6MXNJYuo4tlUB-53" vertex="1">
          <mxGeometry x="190" y="100" width="100" height="40" as="geometry" />
        </mxCell>
        <mxCell id="8oAO5jy6MXNJYuo4tlUB-58" value="" style="edgeStyle=elbowEdgeStyle;elbow=horizontal;html=1;rounded=0;fontFamily=Comic Sans MS;" parent="8oAO5jy6MXNJYuo4tlUB-53" source="8oAO5jy6MXNJYuo4tlUB-54" target="8oAO5jy6MXNJYuo4tlUB-57" edge="1">
          <mxGeometry relative="1" as="geometry" />
        </mxCell>
        <mxCell id="8oAO5jy6MXNJYuo4tlUB-59" value="" style="edgeStyle=orthogonalEdgeStyle;rounded=0;orthogonalLoop=1;jettySize=auto;html=1;" parent="8oAO5jy6MXNJYuo4tlUB-53" source="8oAO5jy6MXNJYuo4tlUB-54" target="8oAO5jy6MXNJYuo4tlUB-60" edge="1">
          <mxGeometry relative="1" as="geometry" />
        </mxCell>
        <mxCell id="8oAO5jy6MXNJYuo4tlUB-60" value="schema 3" style="whiteSpace=wrap;html=1;rounded=1;sketch=1;fontFamily=Comic Sans MS;fillColor=#E6E6E6;fontColor=#EA6B66;" parent="8oAO5jy6MXNJYuo4tlUB-53" vertex="1">
          <mxGeometry x="190" y="180" width="100" height="40" as="geometry" />
        </mxCell>
        <mxCell id="8oAO5jy6MXNJYuo4tlUB-61" value="" style="edgeStyle=orthogonalEdgeStyle;rounded=0;orthogonalLoop=1;jettySize=auto;html=1;" parent="8oAO5jy6MXNJYuo4tlUB-53" source="8oAO5jy6MXNJYuo4tlUB-54" target="8oAO5jy6MXNJYuo4tlUB-62" edge="1">
          <mxGeometry relative="1" as="geometry" />
        </mxCell>
        <mxCell id="8oAO5jy6MXNJYuo4tlUB-62" value="..." style="whiteSpace=wrap;html=1;rounded=1;sketch=1;fontFamily=Comic Sans MS;fillColor=#E6E6E6;fontColor=#EA6B66;" parent="8oAO5jy6MXNJYuo4tlUB-53" vertex="1">
          <mxGeometry x="190" y="260" width="100" height="40" as="geometry" />
        </mxCell>
        <mxCell id="8oAO5jy6MXNJYuo4tlUB-63" value="Voltron packages" style="swimlane;startSize=20;horizontal=1;containerType=tree;rounded=1;sketch=1;fontFamily=Comic Sans MS;fontSize=18;fontColor=#EA6B66;fillColor=#E6E6E6;" parent="1" vertex="1">
          <mxGeometry x="721" y="1270" width="1170" height="380" as="geometry" />
        </mxCell>
        <mxCell id="8oAO5jy6MXNJYuo4tlUB-64" value="Voltron ui packages" style="swimlane;startSize=20;horizontal=1;containerType=tree;rounded=1;sketch=1;fontFamily=Comic Sans MS;fontSize=12;fontColor=#EA6B66;fillColor=#E6E6E6;" parent="8oAO5jy6MXNJYuo4tlUB-63" vertex="1">
          <mxGeometry x="85" y="80" width="420" height="250" as="geometry" />
        </mxCell>
        <mxCell id="8oAO5jy6MXNJYuo4tlUB-65" value="" style="edgeStyle=entityRelationEdgeStyle;startArrow=none;endArrow=none;segment=10;curved=1;rounded=0;fontFamily=Comic Sans MS;fontSize=12;fontColor=#EA6B66;" parent="8oAO5jy6MXNJYuo4tlUB-64" source="8oAO5jy6MXNJYuo4tlUB-67" target="8oAO5jy6MXNJYuo4tlUB-68" edge="1">
          <mxGeometry relative="1" as="geometry" />
        </mxCell>
        <mxCell id="8oAO5jy6MXNJYuo4tlUB-66" value="" style="edgeStyle=entityRelationEdgeStyle;startArrow=none;endArrow=none;segment=10;curved=1;rounded=0;fontFamily=Comic Sans MS;fontSize=12;fontColor=#EA6B66;" parent="8oAO5jy6MXNJYuo4tlUB-64" source="8oAO5jy6MXNJYuo4tlUB-67" target="8oAO5jy6MXNJYuo4tlUB-69" edge="1">
          <mxGeometry relative="1" as="geometry" />
        </mxCell>
        <mxCell id="8oAO5jy6MXNJYuo4tlUB-67" value="UI Widget" style="ellipse;whiteSpace=wrap;html=1;align=center;treeFolding=1;treeMoving=1;newEdgeStyle={&quot;edgeStyle&quot;:&quot;entityRelationEdgeStyle&quot;,&quot;startArrow&quot;:&quot;none&quot;,&quot;endArrow&quot;:&quot;none&quot;,&quot;segment&quot;:10,&quot;curved&quot;:1};rounded=1;sketch=1;fontFamily=Comic Sans MS;fontSize=12;fontColor=#EA6B66;fillColor=#E6E6E6;" parent="8oAO5jy6MXNJYuo4tlUB-64" vertex="1">
          <mxGeometry x="160" y="105" width="100" height="40" as="geometry" />
        </mxCell>
        <mxCell id="8oAO5jy6MXNJYuo4tlUB-68" value="dialog" style="whiteSpace=wrap;html=1;rounded=1;arcSize=50;align=center;verticalAlign=middle;strokeWidth=1;autosize=1;spacing=4;treeFolding=1;treeMoving=1;newEdgeStyle={&quot;edgeStyle&quot;:&quot;entityRelationEdgeStyle&quot;,&quot;startArrow&quot;:&quot;none&quot;,&quot;endArrow&quot;:&quot;none&quot;,&quot;segment&quot;:10,&quot;curved&quot;:1};sketch=1;fontFamily=Comic Sans MS;fontSize=12;fontColor=#EA6B66;fillColor=#E6E6E6;" parent="8oAO5jy6MXNJYuo4tlUB-64" vertex="1">
          <mxGeometry x="320" y="35" width="80" height="30" as="geometry" />
        </mxCell>
        <mxCell id="8oAO5jy6MXNJYuo4tlUB-69" value="button" style="whiteSpace=wrap;html=1;rounded=1;arcSize=50;align=center;verticalAlign=middle;strokeWidth=1;autosize=1;spacing=4;treeFolding=1;treeMoving=1;newEdgeStyle={&quot;edgeStyle&quot;:&quot;entityRelationEdgeStyle&quot;,&quot;startArrow&quot;:&quot;none&quot;,&quot;endArrow&quot;:&quot;none&quot;,&quot;segment&quot;:10,&quot;curved&quot;:1};sketch=1;fontFamily=Comic Sans MS;fontSize=12;fontColor=#EA6B66;fillColor=#E6E6E6;" parent="8oAO5jy6MXNJYuo4tlUB-64" vertex="1">
          <mxGeometry x="20" y="35" width="80" height="30" as="geometry" />
        </mxCell>
        <mxCell id="8oAO5jy6MXNJYuo4tlUB-70" value="" style="edgeStyle=entityRelationEdgeStyle;rounded=0;orthogonalLoop=1;jettySize=auto;html=1;startArrow=none;endArrow=none;segment=10;curved=1;" parent="8oAO5jy6MXNJYuo4tlUB-64" source="8oAO5jy6MXNJYuo4tlUB-67" target="8oAO5jy6MXNJYuo4tlUB-71" edge="1">
          <mxGeometry relative="1" as="geometry" />
        </mxCell>
        <mxCell id="8oAO5jy6MXNJYuo4tlUB-71" value="popup" style="ellipse;whiteSpace=wrap;html=1;align=center;treeFolding=1;treeMoving=1;newEdgeStyle={&quot;edgeStyle&quot;:&quot;entityRelationEdgeStyle&quot;,&quot;startArrow&quot;:&quot;none&quot;,&quot;endArrow&quot;:&quot;none&quot;,&quot;segment&quot;:10,&quot;curved&quot;:1};rounded=1;sketch=1;fontFamily=Comic Sans MS;fontSize=12;fontColor=#EA6B66;fillColor=#E6E6E6;" parent="8oAO5jy6MXNJYuo4tlUB-64" vertex="1">
          <mxGeometry x="20" y="100" width="100" height="40" as="geometry" />
        </mxCell>
        <mxCell id="8oAO5jy6MXNJYuo4tlUB-72" value="" style="edgeStyle=entityRelationEdgeStyle;rounded=0;orthogonalLoop=1;jettySize=auto;html=1;startArrow=none;endArrow=none;segment=10;curved=1;" parent="8oAO5jy6MXNJYuo4tlUB-64" source="8oAO5jy6MXNJYuo4tlUB-67" target="8oAO5jy6MXNJYuo4tlUB-73" edge="1">
          <mxGeometry relative="1" as="geometry" />
        </mxCell>
        <mxCell id="8oAO5jy6MXNJYuo4tlUB-73" value="calendar" style="ellipse;whiteSpace=wrap;html=1;align=center;treeFolding=1;treeMoving=1;newEdgeStyle={&quot;edgeStyle&quot;:&quot;entityRelationEdgeStyle&quot;,&quot;startArrow&quot;:&quot;none&quot;,&quot;endArrow&quot;:&quot;none&quot;,&quot;segment&quot;:10,&quot;curved&quot;:1};rounded=1;sketch=1;fontFamily=Comic Sans MS;fontSize=12;fontColor=#EA6B66;fillColor=#E6E6E6;" parent="8oAO5jy6MXNJYuo4tlUB-64" vertex="1">
          <mxGeometry x="300" y="160" width="100" height="40" as="geometry" />
        </mxCell>
        <mxCell id="8oAO5jy6MXNJYuo4tlUB-74" value="" style="edgeStyle=entityRelationEdgeStyle;rounded=0;orthogonalLoop=1;jettySize=auto;html=1;startArrow=none;endArrow=none;segment=10;curved=1;" parent="8oAO5jy6MXNJYuo4tlUB-64" source="8oAO5jy6MXNJYuo4tlUB-67" target="8oAO5jy6MXNJYuo4tlUB-75" edge="1">
          <mxGeometry relative="1" as="geometry" />
        </mxCell>
        <mxCell id="8oAO5jy6MXNJYuo4tlUB-75" value="input" style="ellipse;whiteSpace=wrap;html=1;align=center;treeFolding=1;treeMoving=1;newEdgeStyle={&quot;edgeStyle&quot;:&quot;entityRelationEdgeStyle&quot;,&quot;startArrow&quot;:&quot;none&quot;,&quot;endArrow&quot;:&quot;none&quot;,&quot;segment&quot;:10,&quot;curved&quot;:1};rounded=1;sketch=1;fontFamily=Comic Sans MS;fontSize=12;fontColor=#EA6B66;fillColor=#E6E6E6;" parent="8oAO5jy6MXNJYuo4tlUB-64" vertex="1">
          <mxGeometry x="20" y="170" width="100" height="40" as="geometry" />
        </mxCell>
        <mxCell id="8oAO5jy6MXNJYuo4tlUB-76" value="" style="edgeStyle=entityRelationEdgeStyle;rounded=0;orthogonalLoop=1;jettySize=auto;html=1;startArrow=none;endArrow=none;segment=10;curved=1;" parent="8oAO5jy6MXNJYuo4tlUB-64" source="8oAO5jy6MXNJYuo4tlUB-67" target="8oAO5jy6MXNJYuo4tlUB-77" edge="1">
          <mxGeometry relative="1" as="geometry" />
        </mxCell>
        <mxCell id="8oAO5jy6MXNJYuo4tlUB-77" value="..." style="ellipse;whiteSpace=wrap;html=1;align=center;treeFolding=1;treeMoving=1;newEdgeStyle={&quot;edgeStyle&quot;:&quot;entityRelationEdgeStyle&quot;,&quot;startArrow&quot;:&quot;none&quot;,&quot;endArrow&quot;:&quot;none&quot;,&quot;segment&quot;:10,&quot;curved&quot;:1};rounded=1;sketch=1;fontFamily=Comic Sans MS;fontSize=12;fontColor=#EA6B66;fillColor=#E6E6E6;" parent="8oAO5jy6MXNJYuo4tlUB-64" vertex="1">
          <mxGeometry x="300" y="100" width="100" height="40" as="geometry" />
        </mxCell>
        <mxCell id="8oAO5jy6MXNJYuo4tlUB-78" value="Voltron business packages" style="swimlane;startSize=20;horizontal=1;containerType=tree;rounded=1;sketch=1;fontFamily=Comic Sans MS;fontSize=12;fontColor=#EA6B66;fillColor=#E6E6E6;" parent="8oAO5jy6MXNJYuo4tlUB-63" vertex="1">
          <mxGeometry x="605" y="80" width="510" height="250" as="geometry" />
        </mxCell>
        <mxCell id="8oAO5jy6MXNJYuo4tlUB-79" value="" style="edgeStyle=entityRelationEdgeStyle;startArrow=none;endArrow=none;segment=10;curved=1;rounded=0;fontFamily=Comic Sans MS;fontSize=12;fontColor=#EA6B66;" parent="8oAO5jy6MXNJYuo4tlUB-78" source="8oAO5jy6MXNJYuo4tlUB-81" target="8oAO5jy6MXNJYuo4tlUB-82" edge="1">
          <mxGeometry relative="1" as="geometry" />
        </mxCell>
        <mxCell id="8oAO5jy6MXNJYuo4tlUB-80" value="" style="edgeStyle=entityRelationEdgeStyle;startArrow=none;endArrow=none;segment=10;curved=1;rounded=0;fontFamily=Comic Sans MS;fontSize=12;fontColor=#EA6B66;" parent="8oAO5jy6MXNJYuo4tlUB-78" source="8oAO5jy6MXNJYuo4tlUB-81" target="8oAO5jy6MXNJYuo4tlUB-83" edge="1">
          <mxGeometry relative="1" as="geometry" />
        </mxCell>
        <mxCell id="8oAO5jy6MXNJYuo4tlUB-81" value="Business Widget" style="ellipse;whiteSpace=wrap;html=1;align=center;treeFolding=1;treeMoving=1;newEdgeStyle={&quot;edgeStyle&quot;:&quot;entityRelationEdgeStyle&quot;,&quot;startArrow&quot;:&quot;none&quot;,&quot;endArrow&quot;:&quot;none&quot;,&quot;segment&quot;:10,&quot;curved&quot;:1};rounded=1;sketch=1;fontFamily=Comic Sans MS;fontSize=12;fontColor=#EA6B66;fillColor=#E6E6E6;" parent="8oAO5jy6MXNJYuo4tlUB-78" vertex="1">
          <mxGeometry x="229" y="110" width="100" height="40" as="geometry" />
        </mxCell>
        <mxCell id="8oAO5jy6MXNJYuo4tlUB-82" value="logistics" style="whiteSpace=wrap;html=1;rounded=1;arcSize=50;align=center;verticalAlign=middle;strokeWidth=1;autosize=1;spacing=4;treeFolding=1;treeMoving=1;newEdgeStyle={&quot;edgeStyle&quot;:&quot;entityRelationEdgeStyle&quot;,&quot;startArrow&quot;:&quot;none&quot;,&quot;endArrow&quot;:&quot;none&quot;,&quot;segment&quot;:10,&quot;curved&quot;:1};sketch=1;fontFamily=Comic Sans MS;fontSize=12;fontColor=#EA6B66;fillColor=#E6E6E6;" parent="8oAO5jy6MXNJYuo4tlUB-78" vertex="1">
          <mxGeometry x="374" y="40" width="90" height="30" as="geometry" />
        </mxCell>
        <mxCell id="8oAO5jy6MXNJYuo4tlUB-83" value="sigin/signup" style="whiteSpace=wrap;html=1;rounded=1;arcSize=50;align=center;verticalAlign=middle;strokeWidth=1;autosize=1;spacing=4;treeFolding=1;treeMoving=1;newEdgeStyle={&quot;edgeStyle&quot;:&quot;entityRelationEdgeStyle&quot;,&quot;startArrow&quot;:&quot;none&quot;,&quot;endArrow&quot;:&quot;none&quot;,&quot;segment&quot;:10,&quot;curved&quot;:1};sketch=1;fontFamily=Comic Sans MS;fontSize=12;fontColor=#EA6B66;fillColor=#E6E6E6;" parent="8oAO5jy6MXNJYuo4tlUB-78" vertex="1">
          <mxGeometry x="39" y="45" width="110" height="30" as="geometry" />
        </mxCell>
        <mxCell id="8oAO5jy6MXNJYuo4tlUB-84" value="" style="edgeStyle=entityRelationEdgeStyle;rounded=0;orthogonalLoop=1;jettySize=auto;html=1;startArrow=none;endArrow=none;segment=10;curved=1;" parent="8oAO5jy6MXNJYuo4tlUB-78" source="8oAO5jy6MXNJYuo4tlUB-81" target="8oAO5jy6MXNJYuo4tlUB-85" edge="1">
          <mxGeometry relative="1" as="geometry" />
        </mxCell>
        <mxCell id="8oAO5jy6MXNJYuo4tlUB-85" value="..." style="ellipse;whiteSpace=wrap;html=1;align=center;treeFolding=1;treeMoving=1;newEdgeStyle={&quot;edgeStyle&quot;:&quot;entityRelationEdgeStyle&quot;,&quot;startArrow&quot;:&quot;none&quot;,&quot;endArrow&quot;:&quot;none&quot;,&quot;segment&quot;:10,&quot;curved&quot;:1};rounded=1;sketch=1;fontFamily=Comic Sans MS;fontSize=12;fontColor=#EA6B66;fillColor=#E6E6E6;" parent="8oAO5jy6MXNJYuo4tlUB-78" vertex="1">
          <mxGeometry x="379" y="170" width="100" height="40" as="geometry" />
        </mxCell>
        <mxCell id="8oAO5jy6MXNJYuo4tlUB-86" value="" style="edgeStyle=entityRelationEdgeStyle;rounded=0;orthogonalLoop=1;jettySize=auto;html=1;startArrow=none;endArrow=none;segment=10;curved=1;" parent="8oAO5jy6MXNJYuo4tlUB-78" source="8oAO5jy6MXNJYuo4tlUB-81" target="8oAO5jy6MXNJYuo4tlUB-87" edge="1">
          <mxGeometry relative="1" as="geometry" />
        </mxCell>
        <mxCell id="8oAO5jy6MXNJYuo4tlUB-87" value="sticky tool bar" style="ellipse;whiteSpace=wrap;html=1;align=center;treeFolding=1;treeMoving=1;newEdgeStyle={&quot;edgeStyle&quot;:&quot;entityRelationEdgeStyle&quot;,&quot;startArrow&quot;:&quot;none&quot;,&quot;endArrow&quot;:&quot;none&quot;,&quot;segment&quot;:10,&quot;curved&quot;:1};rounded=1;sketch=1;fontFamily=Comic Sans MS;fontSize=12;fontColor=#EA6B66;fillColor=#E6E6E6;" parent="8oAO5jy6MXNJYuo4tlUB-78" vertex="1">
          <mxGeometry x="49" y="180" width="100" height="40" as="geometry" />
        </mxCell>
        <mxCell id="8oAO5jy6MXNJYuo4tlUB-88" value="" style="edgeStyle=entityRelationEdgeStyle;rounded=0;orthogonalLoop=1;jettySize=auto;html=1;startArrow=none;endArrow=none;segment=10;curved=1;" parent="8oAO5jy6MXNJYuo4tlUB-78" source="8oAO5jy6MXNJYuo4tlUB-81" target="8oAO5jy6MXNJYuo4tlUB-89" edge="1">
          <mxGeometry relative="1" as="geometry" />
        </mxCell>
        <mxCell id="8oAO5jy6MXNJYuo4tlUB-89" value="activity" style="ellipse;whiteSpace=wrap;html=1;align=center;treeFolding=1;treeMoving=1;newEdgeStyle={&quot;edgeStyle&quot;:&quot;entityRelationEdgeStyle&quot;,&quot;startArrow&quot;:&quot;none&quot;,&quot;endArrow&quot;:&quot;none&quot;,&quot;segment&quot;:10,&quot;curved&quot;:1};rounded=1;sketch=1;fontFamily=Comic Sans MS;fontSize=12;fontColor=#EA6B66;fillColor=#E6E6E6;" parent="8oAO5jy6MXNJYuo4tlUB-78" vertex="1">
          <mxGeometry x="49" y="100" width="100" height="40" as="geometry" />
        </mxCell>
        <mxCell id="8oAO5jy6MXNJYuo4tlUB-90" value="" style="edgeStyle=entityRelationEdgeStyle;rounded=0;orthogonalLoop=1;jettySize=auto;html=1;startArrow=none;endArrow=none;segment=10;curved=1;" parent="8oAO5jy6MXNJYuo4tlUB-78" source="8oAO5jy6MXNJYuo4tlUB-81" target="8oAO5jy6MXNJYuo4tlUB-91" edge="1">
          <mxGeometry relative="1" as="geometry" />
        </mxCell>
        <mxCell id="8oAO5jy6MXNJYuo4tlUB-91" value="grid menu" style="ellipse;whiteSpace=wrap;html=1;align=center;treeFolding=1;treeMoving=1;newEdgeStyle={&quot;edgeStyle&quot;:&quot;entityRelationEdgeStyle&quot;,&quot;startArrow&quot;:&quot;none&quot;,&quot;endArrow&quot;:&quot;none&quot;,&quot;segment&quot;:10,&quot;curved&quot;:1};rounded=1;sketch=1;fontFamily=Comic Sans MS;fontSize=12;fontColor=#EA6B66;fillColor=#E6E6E6;" parent="8oAO5jy6MXNJYuo4tlUB-78" vertex="1">
          <mxGeometry x="389" y="110" width="100" height="40" as="geometry" />
        </mxCell>
        <mxCell id="8ynjG6FLT7n2Omwgxe27-2" value="Horizontal Container" style="swimlane;horizontal=0;swimlaneFillColor=default;" vertex="1" parent="1">
          <mxGeometry x="551" y="1740" width="630" height="770" as="geometry" />
        </mxCell>
        <mxCell id="8ynjG6FLT7n2Omwgxe27-5" value="" style="verticalLabelPosition=bottom;verticalAlign=top;html=1;shape=mxgraph.basic.patternFillRect;fillStyle=diag;step=5;fillStrokeWidth=0.2;fillStrokeColor=#dddddd;gradientColor=none;" vertex="1" parent="8ynjG6FLT7n2Omwgxe27-2">
          <mxGeometry x="60" y="670" width="530" height="60" as="geometry" />
        </mxCell>
        <mxCell id="8ynjG6FLT7n2Omwgxe27-6" value="&lt;font style=&quot;font-size: 16px;&quot;&gt;schema / 协议&amp;nbsp;&lt;/font&gt;" style="text;html=1;strokeColor=none;fillColor=none;align=center;verticalAlign=middle;whiteSpace=wrap;rounded=0;" vertex="1" parent="8ynjG6FLT7n2Omwgxe27-2">
          <mxGeometry x="267.75" y="685" width="133" height="30" as="geometry" />
        </mxCell>
        <mxCell id="8ynjG6FLT7n2Omwgxe27-8" value="" style="verticalLabelPosition=bottom;verticalAlign=top;html=1;shape=mxgraph.basic.patternFillRect;fillStyle=diag;step=5;fillStrokeWidth=0.2;fillStrokeColor=#dddddd;" vertex="1" parent="8ynjG6FLT7n2Omwgxe27-2">
          <mxGeometry x="60" y="570" width="530" height="60" as="geometry" />
        </mxCell>
        <mxCell id="8ynjG6FLT7n2Omwgxe27-9" value="&lt;span style=&quot;font-size: 16px;&quot;&gt;widgets / packages 业务组件&lt;/span&gt;" style="text;html=1;strokeColor=none;fillColor=none;align=center;verticalAlign=middle;whiteSpace=wrap;rounded=0;" vertex="1" parent="8ynjG6FLT7n2Omwgxe27-2">
          <mxGeometry x="240" y="585" width="221.5" height="30" as="geometry" />
        </mxCell>
        <mxCell id="8ynjG6FLT7n2Omwgxe27-43" value="" style="swimlane;startSize=0;labelBackgroundColor=#67AB9F;fontSize=16;strokeColor=#67AB9F;fillColor=#67AB9F;gradientColor=none;" vertex="1" parent="8ynjG6FLT7n2Omwgxe27-2">
          <mxGeometry x="60" y="120" width="530" height="400" as="geometry" />
        </mxCell>
        <mxCell id="8ynjG6FLT7n2Omwgxe27-44" value="&lt;span style=&quot;color: rgba(0, 0, 0, 0); font-family: monospace; font-size: 0px; text-align: start;&quot;&gt;%3CmxGraphModel%3E%3Croot%3E%3CmxCell%20id%3D%220%22%2F%3E%3CmxCell%20id%3D%221%22%20parent%3D%220%22%2F%3E%3CmxCell%20id%3D%222%22%20value%3D%22Horizontal%20Container%22%20style%3D%22swimlane%3Bhorizontal%3D0%3BswimlaneFillColor%3Ddefault%3B%22%20vertex%3D%221%22%20parent%3D%221%22%3E%3CmxGeometry%20x%3D%22551%22%20y%3D%221730%22%20width%3D%22630%22%20height%3D%22770%22%20as%3D%22geometry%22%2F%3E%3C%2FmxCell%3E%3CmxCell%20id%3D%223%22%20value%3D%22%22%20style%3D%22verticalLabelPosition%3Dbottom%3BverticalAlign%3Dtop%3Bhtml%3D1%3Bshape%3Dmxgraph.basic.patternFillRect%3BfillStyle%3Ddiag%3Bstep%3D5%3BfillStrokeWidth%3D0.2%3BfillStrokeColor%3D%23dddddd%3BgradientColor%3Dnone%3B%22%20vertex%3D%221%22%20parent%3D%222%22%3E%3CmxGeometry%20x%3D%2260%22%20y%3D%22670%22%20width%3D%22530%22%20height%3D%2260%22%20as%3D%22geometry%22%2F%3E%3C%2FmxCell%3E%3CmxCell%20id%3D%224%22%20value%3D%22%26lt%3Bfont%20style%3D%26quot%3Bfont-size%3A%2016px%3B%26quot%3B%26gt%3Bschema%20%2F%20%E5%8D%8F%E8%AE%AE%26amp%3Bnbsp%3B%26lt%3B%2Ffont%26gt%3B%22%20style%3D%22text%3Bhtml%3D1%3BstrokeColor%3Dnone%3BfillColor%3Dnone%3Balign%3Dcenter%3BverticalAlign%3Dmiddle%3BwhiteSpace%3Dwrap%3Brounded%3D0%3B%22%20vertex%3D%221%22%20parent%3D%222%22%3E%3CmxGeometry%20x%3D%22267.75%22%20y%3D%22685%22%20width%3D%22133%22%20height%3D%2230%22%20as%3D%22geometry%22%2F%3E%3C%2FmxCell%3E%3CmxCell%20id%3D%225%22%20value%3D%22%22%20style%3D%22verticalLabelPosition%3Dbottom%3BverticalAlign%3Dtop%3Bhtml%3D1%3Bshape%3Dmxgraph.basic.patternFillRect%3BfillStyle%3Ddiag%3Bstep%3D5%3BfillStrokeWidth%3D0.2%3BfillStrokeColor%3D%23dddddd%3B%22%20vertex%3D%221%22%20parent%3D%222%22%3E%3CmxGeometry%20x%3D%2260%22%20y%3D%22570%22%20width%3D%22530%22%20height%3D%2260%22%20as%3D%22geometry%22%2F%3E%3C%2FmxCell%3E%3CmxCell%20id%3D%226%22%20value%3D%22%26lt%3Bspan%20style%3D%26quot%3Bfont-size%3A%2016px%3B%26quot%3B%26gt%3Bwidgets%20%2F%20packages%20%E4%B8%9A%E5%8A%A1%E7%BB%84%E4%BB%B6%26lt%3B%2Fspan%26gt%3B%22%20style%3D%22text%3Bhtml%3D1%3BstrokeColor%3Dnone%3BfillColor%3Dnone%3Balign%3Dcenter%3BverticalAlign%3Dmiddle%3BwhiteSpace%3Dwrap%3Brounded%3D0%3B%22%20vertex%3D%221%22%20parent%3D%222%22%3E%3CmxGeometry%20x%3D%22240%22%20y%3D%22585%22%20width%3D%22221.5%22%20height%3D%2230%22%20as%3D%22geometry%22%2F%3E%3C%2FmxCell%3E%3CmxCell%20id%3D%227%22%20value%3D%22%22%20style%3D%22swimlane%3BstartSize%3D0%3BlabelBackgroundColor%3D%2367AB9F%3BfontSize%3D16%3BstrokeColor%3D%2367AB9F%3BfillColor%3D%2367AB9F%3BgradientColor%3Dnone%3B%22%20vertex%3D%221%22%20parent%3D%222%22%3E%3CmxGeometry%20x%3D%2260%22%20y%3D%2250%22%20width%3D%22530%22%20height%3D%22460%22%20as%3D%22geometry%22%2F%3E%3C%2FmxCell%3E%3CmxCell%20id%3D%228%22%20value%3D%22%22%20style%3D%22verticalLabelPosition%3Dbottom%3BverticalAlign%3Dtop%3Bhtml%3D1%3Bshape%3Dmxgraph.basic.patternFillRect%3BfillStyle%3Ddiag%3Bstep%3D5%3BfillStrokeWidth%3D0.2%3BfillStrokeColor%3D%23dddddd%3B%22%20vertex%3D%221%22%20parent%3D%227%22%3E%3CmxGeometry%20x%3D%2230%22%20y%3D%2250%22%20width%3D%22220%22%20height%3D%22360%22%20as%3D%22geometry%22%2F%3E%3C%2FmxCell%3E%3C%2Froot%3E%3C%2FmxGraphModel%3E&lt;/span&gt;" style="verticalLabelPosition=bottom;verticalAlign=top;html=1;shape=mxgraph.basic.patternFillRect;fillStyle=diag;step=5;fillStrokeWidth=0.2;fillStrokeColor=#dddddd;" vertex="1" parent="8ynjG6FLT7n2Omwgxe27-43">
          <mxGeometry x="30" y="50" width="220" height="130" as="geometry" />
        </mxCell>
        <mxCell id="8ynjG6FLT7n2Omwgxe27-45" value="&lt;span style=&quot;color: rgba(0, 0, 0, 0); font-family: monospace; font-size: 0px; text-align: start;&quot;&gt;%3CmxGraphModel%3E%3Croot%3E%3CmxCell%20id%3D%220%22%2F%3E%3CmxCell%20id%3D%221%22%20parent%3D%220%22%2F%3E%3CmxCell%20id%3D%222%22%20value%3D%22Horizontal%20Container%22%20style%3D%22swimlane%3Bhorizontal%3D0%3BswimlaneFillColor%3Ddefault%3B%22%20vertex%3D%221%22%20parent%3D%221%22%3E%3CmxGeometry%20x%3D%22551%22%20y%3D%221730%22%20width%3D%22630%22%20height%3D%22770%22%20as%3D%22geometry%22%2F%3E%3C%2FmxCell%3E%3CmxCell%20id%3D%223%22%20value%3D%22%22%20style%3D%22verticalLabelPosition%3Dbottom%3BverticalAlign%3Dtop%3Bhtml%3D1%3Bshape%3Dmxgraph.basic.patternFillRect%3BfillStyle%3Ddiag%3Bstep%3D5%3BfillStrokeWidth%3D0.2%3BfillStrokeColor%3D%23dddddd%3BgradientColor%3Dnone%3B%22%20vertex%3D%221%22%20parent%3D%222%22%3E%3CmxGeometry%20x%3D%2260%22%20y%3D%22670%22%20width%3D%22530%22%20height%3D%2260%22%20as%3D%22geometry%22%2F%3E%3C%2FmxCell%3E%3CmxCell%20id%3D%224%22%20value%3D%22%26lt%3Bfont%20style%3D%26quot%3Bfont-size%3A%2016px%3B%26quot%3B%26gt%3Bschema%20%2F%20%E5%8D%8F%E8%AE%AE%26amp%3Bnbsp%3B%26lt%3B%2Ffont%26gt%3B%22%20style%3D%22text%3Bhtml%3D1%3BstrokeColor%3Dnone%3BfillColor%3Dnone%3Balign%3Dcenter%3BverticalAlign%3Dmiddle%3BwhiteSpace%3Dwrap%3Brounded%3D0%3B%22%20vertex%3D%221%22%20parent%3D%222%22%3E%3CmxGeometry%20x%3D%22267.75%22%20y%3D%22685%22%20width%3D%22133%22%20height%3D%2230%22%20as%3D%22geometry%22%2F%3E%3C%2FmxCell%3E%3CmxCell%20id%3D%225%22%20value%3D%22%22%20style%3D%22verticalLabelPosition%3Dbottom%3BverticalAlign%3Dtop%3Bhtml%3D1%3Bshape%3Dmxgraph.basic.patternFillRect%3BfillStyle%3Ddiag%3Bstep%3D5%3BfillStrokeWidth%3D0.2%3BfillStrokeColor%3D%23dddddd%3B%22%20vertex%3D%221%22%20parent%3D%222%22%3E%3CmxGeometry%20x%3D%2260%22%20y%3D%22570%22%20width%3D%22530%22%20height%3D%2260%22%20as%3D%22geometry%22%2F%3E%3C%2FmxCell%3E%3CmxCell%20id%3D%226%22%20value%3D%22%26lt%3Bspan%20style%3D%26quot%3Bfont-size%3A%2016px%3B%26quot%3B%26gt%3Bwidgets%20%2F%20packages%20%E4%B8%9A%E5%8A%A1%E7%BB%84%E4%BB%B6%26lt%3B%2Fspan%26gt%3B%22%20style%3D%22text%3Bhtml%3D1%3BstrokeColor%3Dnone%3BfillColor%3Dnone%3Balign%3Dcenter%3BverticalAlign%3Dmiddle%3BwhiteSpace%3Dwrap%3Brounded%3D0%3B%22%20vertex%3D%221%22%20parent%3D%222%22%3E%3CmxGeometry%20x%3D%22240%22%20y%3D%22585%22%20width%3D%22221.5%22%20height%3D%2230%22%20as%3D%22geometry%22%2F%3E%3C%2FmxCell%3E%3CmxCell%20id%3D%227%22%20value%3D%22%22%20style%3D%22swimlane%3BstartSize%3D0%3BlabelBackgroundColor%3D%2367AB9F%3BfontSize%3D16%3BstrokeColor%3D%2367AB9F%3BfillColor%3D%2367AB9F%3BgradientColor%3Dnone%3B%22%20vertex%3D%221%22%20parent%3D%222%22%3E%3CmxGeometry%20x%3D%2260%22%20y%3D%2250%22%20width%3D%22530%22%20height%3D%22460%22%20as%3D%22geometry%22%2F%3E%3C%2FmxCell%3E%3CmxCell%20id%3D%228%22%20value%3D%22%22%20style%3D%22verticalLabelPosition%3Dbottom%3BverticalAlign%3Dtop%3Bhtml%3D1%3Bshape%3Dmxgraph.basic.patternFillRect%3BfillStyle%3Ddiag%3Bstep%3D5%3BfillStrokeWidth%3D0.2%3BfillStrokeColor%3D%23dddddd%3B%22%20vertex%3D%221%22%20parent%3D%227%22%3E%3CmxGeometry%20x%3D%2230%22%20y%3D%2250%22%20width%3D%22220%22%20height%3D%22360%22%20as%3D%22geometry%22%2F%3E%3C%2FmxCell%3E%3C%2Froot%3E%3C%2FmxGraphModel%3E&lt;/span&gt;" style="verticalLabelPosition=bottom;verticalAlign=top;html=1;shape=mxgraph.basic.patternFillRect;fillStyle=diag;step=5;fillStrokeWidth=0.2;fillStrokeColor=#dddddd;" vertex="1" parent="8ynjG6FLT7n2Omwgxe27-43">
          <mxGeometry x="279" y="50" width="220" height="130" as="geometry" />
        </mxCell>
        <mxCell id="8ynjG6FLT7n2Omwgxe27-47" value="&lt;font style=&quot;font-size: 16px;&quot;&gt;editor&lt;/font&gt;" style="text;html=1;strokeColor=none;fillColor=none;align=center;verticalAlign=middle;whiteSpace=wrap;rounded=0;" vertex="1" parent="8ynjG6FLT7n2Omwgxe27-43">
          <mxGeometry x="73.5" y="100" width="133" height="30" as="geometry" />
        </mxCell>
        <mxCell id="8ynjG6FLT7n2Omwgxe27-48" value="&lt;font style=&quot;font-size: 16px;&quot;&gt;generator&lt;/font&gt;" style="text;html=1;strokeColor=none;fillColor=none;align=center;verticalAlign=middle;whiteSpace=wrap;rounded=0;" vertex="1" parent="8ynjG6FLT7n2Omwgxe27-43">
          <mxGeometry x="319" y="100" width="133" height="30" as="geometry" />
        </mxCell>
        <mxCell id="8ynjG6FLT7n2Omwgxe27-49" value="&lt;span style=&quot;color: rgba(0, 0, 0, 0); font-family: monospace; font-size: 0px; text-align: start;&quot;&gt;%3CmxGraphModel%3E%3Croot%3E%3CmxCell%20id%3D%220%22%2F%3E%3CmxCell%20id%3D%221%22%20parent%3D%220%22%2F%3E%3CmxCell%20id%3D%222%22%20value%3D%22Horizontal%20Container%22%20style%3D%22swimlane%3Bhorizontal%3D0%3BswimlaneFillColor%3Ddefault%3B%22%20vertex%3D%221%22%20parent%3D%221%22%3E%3CmxGeometry%20x%3D%22551%22%20y%3D%221730%22%20width%3D%22630%22%20height%3D%22770%22%20as%3D%22geometry%22%2F%3E%3C%2FmxCell%3E%3CmxCell%20id%3D%223%22%20value%3D%22%22%20style%3D%22verticalLabelPosition%3Dbottom%3BverticalAlign%3Dtop%3Bhtml%3D1%3Bshape%3Dmxgraph.basic.patternFillRect%3BfillStyle%3Ddiag%3Bstep%3D5%3BfillStrokeWidth%3D0.2%3BfillStrokeColor%3D%23dddddd%3BgradientColor%3Dnone%3B%22%20vertex%3D%221%22%20parent%3D%222%22%3E%3CmxGeometry%20x%3D%2260%22%20y%3D%22670%22%20width%3D%22530%22%20height%3D%2260%22%20as%3D%22geometry%22%2F%3E%3C%2FmxCell%3E%3CmxCell%20id%3D%224%22%20value%3D%22%26lt%3Bfont%20style%3D%26quot%3Bfont-size%3A%2016px%3B%26quot%3B%26gt%3Bschema%20%2F%20%E5%8D%8F%E8%AE%AE%26amp%3Bnbsp%3B%26lt%3B%2Ffont%26gt%3B%22%20style%3D%22text%3Bhtml%3D1%3BstrokeColor%3Dnone%3BfillColor%3Dnone%3Balign%3Dcenter%3BverticalAlign%3Dmiddle%3BwhiteSpace%3Dwrap%3Brounded%3D0%3B%22%20vertex%3D%221%22%20parent%3D%222%22%3E%3CmxGeometry%20x%3D%22267.75%22%20y%3D%22685%22%20width%3D%22133%22%20height%3D%2230%22%20as%3D%22geometry%22%2F%3E%3C%2FmxCell%3E%3CmxCell%20id%3D%225%22%20value%3D%22%22%20style%3D%22verticalLabelPosition%3Dbottom%3BverticalAlign%3Dtop%3Bhtml%3D1%3Bshape%3Dmxgraph.basic.patternFillRect%3BfillStyle%3Ddiag%3Bstep%3D5%3BfillStrokeWidth%3D0.2%3BfillStrokeColor%3D%23dddddd%3B%22%20vertex%3D%221%22%20parent%3D%222%22%3E%3CmxGeometry%20x%3D%2260%22%20y%3D%22570%22%20width%3D%22530%22%20height%3D%2260%22%20as%3D%22geometry%22%2F%3E%3C%2FmxCell%3E%3CmxCell%20id%3D%226%22%20value%3D%22%26lt%3Bspan%20style%3D%26quot%3Bfont-size%3A%2016px%3B%26quot%3B%26gt%3Bwidgets%20%2F%20packages%20%E4%B8%9A%E5%8A%A1%E7%BB%84%E4%BB%B6%26lt%3B%2Fspan%26gt%3B%22%20style%3D%22text%3Bhtml%3D1%3BstrokeColor%3Dnone%3BfillColor%3Dnone%3Balign%3Dcenter%3BverticalAlign%3Dmiddle%3BwhiteSpace%3Dwrap%3Brounded%3D0%3B%22%20vertex%3D%221%22%20parent%3D%222%22%3E%3CmxGeometry%20x%3D%22240%22%20y%3D%22585%22%20width%3D%22221.5%22%20height%3D%2230%22%20as%3D%22geometry%22%2F%3E%3C%2FmxCell%3E%3CmxCell%20id%3D%227%22%20value%3D%22%22%20style%3D%22swimlane%3BstartSize%3D0%3BlabelBackgroundColor%3D%2367AB9F%3BfontSize%3D16%3BstrokeColor%3D%2367AB9F%3BfillColor%3D%2367AB9F%3BgradientColor%3Dnone%3B%22%20vertex%3D%221%22%20parent%3D%222%22%3E%3CmxGeometry%20x%3D%2260%22%20y%3D%2250%22%20width%3D%22530%22%20height%3D%22460%22%20as%3D%22geometry%22%2F%3E%3C%2FmxCell%3E%3CmxCell%20id%3D%228%22%20value%3D%22%22%20style%3D%22verticalLabelPosition%3Dbottom%3BverticalAlign%3Dtop%3Bhtml%3D1%3Bshape%3Dmxgraph.basic.patternFillRect%3BfillStyle%3Ddiag%3Bstep%3D5%3BfillStrokeWidth%3D0.2%3BfillStrokeColor%3D%23dddddd%3B%22%20vertex%3D%221%22%20parent%3D%227%22%3E%3CmxGeometry%20x%3D%2230%22%20y%3D%2250%22%20width%3D%22220%22%20height%3D%22360%22%20as%3D%22geometry%22%2F%3E%3C%2FmxCell%3E%3C%2Froot%3E%3C%2FmxGraphModel%3E&lt;/span&gt;" style="verticalLabelPosition=bottom;verticalAlign=top;html=1;shape=mxgraph.basic.patternFillRect;fillStyle=diag;step=5;fillStrokeWidth=0.2;fillStrokeColor=#dddddd;" vertex="1" parent="8ynjG6FLT7n2Omwgxe27-43">
          <mxGeometry x="30" y="210" width="220" height="130" as="geometry" />
        </mxCell>
        <mxCell id="8ynjG6FLT7n2Omwgxe27-50" value="&lt;font style=&quot;font-size: 16px;&quot;&gt;app&lt;/font&gt;" style="text;html=1;strokeColor=none;fillColor=none;align=center;verticalAlign=middle;whiteSpace=wrap;rounded=0;" vertex="1" parent="8ynjG6FLT7n2Omwgxe27-43">
          <mxGeometry x="73.5" y="260" width="133" height="30" as="geometry" />
        </mxCell>
        <mxCell id="8ynjG6FLT7n2Omwgxe27-51" value="&lt;span style=&quot;color: rgba(0, 0, 0, 0); font-family: monospace; font-size: 0px; text-align: start;&quot;&gt;%3CmxGraphModel%3E%3Croot%3E%3CmxCell%20id%3D%220%22%2F%3E%3CmxCell%20id%3D%221%22%20parent%3D%220%22%2F%3E%3CmxCell%20id%3D%222%22%20value%3D%22Horizontal%20Container%22%20style%3D%22swimlane%3Bhorizontal%3D0%3BswimlaneFillColor%3Ddefault%3B%22%20vertex%3D%221%22%20parent%3D%221%22%3E%3CmxGeometry%20x%3D%22551%22%20y%3D%221730%22%20width%3D%22630%22%20height%3D%22770%22%20as%3D%22geometry%22%2F%3E%3C%2FmxCell%3E%3CmxCell%20id%3D%223%22%20value%3D%22%22%20style%3D%22verticalLabelPosition%3Dbottom%3BverticalAlign%3Dtop%3Bhtml%3D1%3Bshape%3Dmxgraph.basic.patternFillRect%3BfillStyle%3Ddiag%3Bstep%3D5%3BfillStrokeWidth%3D0.2%3BfillStrokeColor%3D%23dddddd%3BgradientColor%3Dnone%3B%22%20vertex%3D%221%22%20parent%3D%222%22%3E%3CmxGeometry%20x%3D%2260%22%20y%3D%22670%22%20width%3D%22530%22%20height%3D%2260%22%20as%3D%22geometry%22%2F%3E%3C%2FmxCell%3E%3CmxCell%20id%3D%224%22%20value%3D%22%26lt%3Bfont%20style%3D%26quot%3Bfont-size%3A%2016px%3B%26quot%3B%26gt%3Bschema%20%2F%20%E5%8D%8F%E8%AE%AE%26amp%3Bnbsp%3B%26lt%3B%2Ffont%26gt%3B%22%20style%3D%22text%3Bhtml%3D1%3BstrokeColor%3Dnone%3BfillColor%3Dnone%3Balign%3Dcenter%3BverticalAlign%3Dmiddle%3BwhiteSpace%3Dwrap%3Brounded%3D0%3B%22%20vertex%3D%221%22%20parent%3D%222%22%3E%3CmxGeometry%20x%3D%22267.75%22%20y%3D%22685%22%20width%3D%22133%22%20height%3D%2230%22%20as%3D%22geometry%22%2F%3E%3C%2FmxCell%3E%3CmxCell%20id%3D%225%22%20value%3D%22%22%20style%3D%22verticalLabelPosition%3Dbottom%3BverticalAlign%3Dtop%3Bhtml%3D1%3Bshape%3Dmxgraph.basic.patternFillRect%3BfillStyle%3Ddiag%3Bstep%3D5%3BfillStrokeWidth%3D0.2%3BfillStrokeColor%3D%23dddddd%3B%22%20vertex%3D%221%22%20parent%3D%222%22%3E%3CmxGeometry%20x%3D%2260%22%20y%3D%22570%22%20width%3D%22530%22%20height%3D%2260%22%20as%3D%22geometry%22%2F%3E%3C%2FmxCell%3E%3CmxCell%20id%3D%226%22%20value%3D%22%26lt%3Bspan%20style%3D%26quot%3Bfont-size%3A%2016px%3B%26quot%3B%26gt%3Bwidgets%20%2F%20packages%20%E4%B8%9A%E5%8A%A1%E7%BB%84%E4%BB%B6%26lt%3B%2Fspan%26gt%3B%22%20style%3D%22text%3Bhtml%3D1%3BstrokeColor%3Dnone%3BfillColor%3Dnone%3Balign%3Dcenter%3BverticalAlign%3Dmiddle%3BwhiteSpace%3Dwrap%3Brounded%3D0%3B%22%20vertex%3D%221%22%20parent%3D%222%22%3E%3CmxGeometry%20x%3D%22240%22%20y%3D%22585%22%20width%3D%22221.5%22%20height%3D%2230%22%20as%3D%22geometry%22%2F%3E%3C%2FmxCell%3E%3CmxCell%20id%3D%227%22%20value%3D%22%22%20style%3D%22swimlane%3BstartSize%3D0%3BlabelBackgroundColor%3D%2367AB9F%3BfontSize%3D16%3BstrokeColor%3D%2367AB9F%3BfillColor%3D%2367AB9F%3BgradientColor%3Dnone%3B%22%20vertex%3D%221%22%20parent%3D%222%22%3E%3CmxGeometry%20x%3D%2260%22%20y%3D%2250%22%20width%3D%22530%22%20height%3D%22460%22%20as%3D%22geometry%22%2F%3E%3C%2FmxCell%3E%3CmxCell%20id%3D%228%22%20value%3D%22%22%20style%3D%22verticalLabelPosition%3Dbottom%3BverticalAlign%3Dtop%3Bhtml%3D1%3Bshape%3Dmxgraph.basic.patternFillRect%3BfillStyle%3Ddiag%3Bstep%3D5%3BfillStrokeWidth%3D0.2%3BfillStrokeColor%3D%23dddddd%3B%22%20vertex%3D%221%22%20parent%3D%227%22%3E%3CmxGeometry%20x%3D%2230%22%20y%3D%2250%22%20width%3D%22220%22%20height%3D%22360%22%20as%3D%22geometry%22%2F%3E%3C%2FmxCell%3E%3C%2Froot%3E%3C%2FmxGraphModel%3E&lt;/span&gt;" style="verticalLabelPosition=bottom;verticalAlign=top;html=1;shape=mxgraph.basic.patternFillRect;fillStyle=diag;step=5;fillStrokeWidth=0.2;fillStrokeColor=#dddddd;" vertex="1" parent="8ynjG6FLT7n2Omwgxe27-43">
          <mxGeometry x="279" y="210" width="220" height="130" as="geometry" />
        </mxCell>
        <mxCell id="8ynjG6FLT7n2Omwgxe27-52" value="&lt;font style=&quot;font-size: 16px;&quot;&gt;smart&lt;/font&gt;" style="text;html=1;strokeColor=none;fillColor=none;align=center;verticalAlign=middle;whiteSpace=wrap;rounded=0;" vertex="1" parent="8ynjG6FLT7n2Omwgxe27-43">
          <mxGeometry x="322.5" y="260" width="133" height="30" as="geometry" />
        </mxCell>
      </root>
    </mxGraphModel>
  </diagram>
</mxfile>
